<svg xmlns="http://www.w3.org/2000/svg" viewBox="0 -32 100 100" preserveAspectRatio="xMinYMin"><path d="M55.02 8.893c-8.89 0-15.617 6.907-15.617 15.462 0 9.02 7.01 15.462 15.617 15.462 8.607 0 15.59-6.443 15.59-15.462 0-8.555-6.7-15.462-15.59-15.462zm0 8.17c3.84-.026 6.983 3.246 6.983 7.292 0 4.02-3.144 7.293-6.983 7.293-3.84 0-6.984-3.273-6.984-7.293 0-4.046 3.144-7.293 6.984-7.293zm44.485 17.341a5.41 5.41 0 0 1-5.411 5.412 5.41 5.41 0 0 1-5.412-5.412 5.41 5.41 0 0 1 5.412-5.412 5.41 5.41 0 0 1 5.411 5.412zm-15.753 4.382h-8.504V.39h8.504v38.396z"/><path d="M.518 38.786L15.979.39h7.989L39.17 38.786H28.348l-1.803-5.412h-13.4l-1.804 5.412H.518zm23.45-13.4h-7.989L19.973 12.5l3.995 12.885z" fill-rule="evenodd"/></svg>h-7.989L19.973 12.5l3.995 12.885z" fill-rule="evenodd" stroke-width=".2"/></svg>