<svg xmlns="http://www.w3.org/2000/svg" viewBox="117 265 239 235" preserveAspectRatio="xMinYMin"><g fill-rule="evenodd"><path d="M116.377 262.206h239.97v239.97h-239.97v-239.97z" fill="#0080f5"/><path d="M255.114 423.026a72.285 72.285 0 0 0-15.512-1.693 72.05 72.05 0 0 0-21.046 3.13V388.42h36.56v34.605zm18.738 6.956v-60.265l-74.054.01v63.602l-.21.13H163.24V332.18h110.25s36.924.17 36.924 35.652v65.597l-30.795.04a71.895 71.895 0 0 0-5.77-3.49" fill="#fff"/><path d="M125.75 491.553v-33.315a46.422 46.422 0 0 1 14.413-3.57l-.005.072c.866-.12 1.805-.182 2.77-.217l1.14-.03a46.5 46.5 0 0 1 3.656.157c3.155.264 6.485.856 9.65 1.757-.285 1.21.074.02.074.02l-.075-.02.064-.265c-1-1.61-3.416-3.835-6.3-5.675 7.144-7.678 17.323-12.492 28.64-12.492 3.895 0 7.655.575 11.205 1.634-2.013 3.9-3.607 8.73-3.78 12.69l.144.13-.018.02s1.026.9.018-.03c4.03-5.38 6.656-8.17 9.46-10.57l.06.02a61.67 61.67 0 0 1 2.006-1.72c.994-.78 2.05-1.59 3.225-2.48 10.545-7.63 23.49-12.15 37.504-12.15 15.71 0 30.09 5.66 41.24 15.04-1.36 2.41-2.24 5.53-2.79 8.03l.22.32-.08.052s.69.84.08-.055c2.31-1.767 4.88-3.06 7.12-4.13l.02.02a31.78 31.78 0 0 1 12.34-2.48c12.58 0 23.45 7.3 28.62 17.892.17.353.34.722.51 1.103l.15.336c.85 2.04 1.59 4.45 2.11 7.466-1.26.21.02.087.02.087l-.02-.08.25-.04c1.35-2.055 2.52-5.834 2.8-9.287 4.54-2.47 9.53-4.22 14.82-5.07v36.79H125.75z" fill="#a6d3fc"/></g></svg>