<svg id="Layer_1" xmlns="http://www.w3.org/2000/svg" preserveAspectRatio="xMinYMin" viewBox="-452 253 55 55"><style>.st2{stroke:#80bec2;stroke-width:.5;fill:#007c85}.st3{fill:#fff}.st6{fill:#c3dcda}</style><g id="Page-1"><g id="netscape" transform="translate(0 -1)"><path id="path3344" d="M-397.2 281.4c0 15.1-12.3 27.4-27.4 27.4-15.1 0-27.4-12.3-27.4-27.4 0-15.1 12.3-27.4 27.4-27.4 15.1 0 27.4 12.3 27.4 27.4z" fill="#a2a4a4"/><path id="path3342" d="M-398.2 281.4c0 14.6-11.8 26.4-26.4 26.4-14.6 0-26.4-11.8-26.4-26.4 0-14.6 11.8-26.4 26.4-26.4 14.6-.1 26.4 11.8 26.4 26.4z" fill="#7fc0c4" stroke="#80bec2" stroke-width=".5"/><path id="path3337" class="st2" d="M-400.1 281.4c0 13.6-11 24.5-24.5 24.5-13.6 0-24.5-11-24.5-24.5 0-13.6 11-24.5 24.5-24.5 13.5-.1 24.5 10.9 24.5 24.5z"/><path id="path2541" class="st2" d="M-400.1 281.4c0 13.6-11 24.5-24.5 24.5-13.6 0-24.5-11-24.5-24.5 0-13.6 11-24.5 24.5-24.5 13.5-.1 24.5 10.9 24.5 24.5z"/><path id="path3327" class="st3" d="M-441.9 268.2l2.1.3.8.4 18.2 20.5 5.6.6-2.4-3.4-17-18.8-7.4-.1v.5h.1z"/><linearGradient id="path3317_1_" gradientUnits="userSpaceOnUse" x1="-886.611" y1="550.215" x2="-886.577" y2="550.242" gradientTransform="matrix(26.7586 0 0 -22.3345 23295.83 12567.638)"><stop offset="0" stop-color="#C3DCDA"/><stop offset=".54" stop-color="#C3DCDA" stop-opacity="0"/></linearGradient><path id="path3317" d="M-439.8 268.5l.8.4 18.2 20.5 5.6.6-2.4-3.4-17-18.8-7.4-.1v.6l2.2.2z" fill="url(#path3317_1_)"/><path id="path3339" d="M-402.7 292.4c-4 8-12.4 13.6-21.9 13.6-9.4 0-17.6-5.3-21.7-13 22.4-6.9 30-2.8 43.6-.6z" stroke="#80bec2" stroke-width=".5"/><path id="rect3333" class="st3" d="M-415 271v19.8h-1.8V271c0-1.2-1.6-2.9-4.5-2.8v-.8h10.2v.8c-3 .2-3.9 1.6-3.9 2.8z"/><path id="path2545" class="st3" d="M-447 291.4c14.9-4 30.9-3.3 44.4.9l-.2.5c-9.7-.8-26.1-4.3-42.7 1.3-.6-.8-1.1-1.7-1.5-2.7z"/><path id="path3352" class="st6" d="M-442.1 293.8c2.9.1 4-1.2 4.6-2.8l1.6.3c.5 1.1.9 2.2 3.9 2.5v.8h-10.2l.1-.8z"/><path id="rect3350" class="st6" d="M-437.6 270.4l1.6 1.8v21.2h-1.6v-23z"/><path id="path3331" class="st3" d="M-442 293.8c2.9.2 4.1-.8 4.6-2.8l1.6.3c.5 1.1.9 2.2 4 2.5v.8h-10.4l.2-.8z"/><path id="rect3329" class="st3" d="M-437.4 270.7l1.6 1.8v20.9h-1.6v-22.7z"/></g></g></svg>